# xmcd
#
# Track frame offsets:
#	150
#	14618
#	26976
#	44303
#	56432
#	71129
#	84160
#	98582
#	113893
#	127005
#	141198
#	156634
#	167656
#	184014
#	201166
#	214982
#	229646
#	250373
#	270085
#	289232
#	302704
#
# Disc length: 4294 seconds
#
# Revision: 1
# Processed by: cddbd v1.5.2PL0 Copyright (c) Steve Scherf et al.
# Submitted via: audiograbber 1.83.01
#
DISCID=3310c415
DTITLE=Barry Blue - The Single Collection
DYEAR=1975
DGENRE=Glitter and Glam
TTITLE0=Dancin' (On A Saturday Night)
TTITLE1=New Day
TTITLE2=Do You Wanna Dance
TTITLE3=Don't Put Your Money On My Horse
TTITLE4=School Love
TTITLE5=Hi-Cool Woman
TTITLE6=Miss Hit And Run
TTITLE7=Heads I Win Tails You Lose
TTITLE8=Hot Hot
TTITLE9=Hobo Man
TTITLE10=You Make Me Happy (When I'm Blue)
TTITLE11=Kiss Me Kiss Your Baby
TTITLE12=If I Show You I Can Dance
TTITLE13=Rosetta Stone
TTITLE14=Tough Kids
TTITLE15=The Man with No Name
TTITLE16=Billy
TTITLE17=Sitting On A Corner (Of A Love Affair)
TTITLE18=A Lover Lovin' You
TTITLE19=Long Hard Road
TTITLE20=Happy Christmas To You From Me
EXTD=
EXTT0=
EXTT1=
EXTT2=
EXTT3=
EXTT4=
EXTT5=
EXTT6=
EXTT7=
EXTT8=
EXTT9=
EXTT10=
EXTT11=
EXTT12=
EXTT13=
EXTT14=
EXTT15=
EXTT16=
EXTT17=
EXTT18=
EXTT19=
EXTT20=
PLAYORDER=
